HIERARCHY
ROOT Hips
{
  OFFSET 53.5358 91.5513 6.29799
  CHANNELS 6 Xposition Yposition Zposition Zrotation Xrotation Yrotation
  JOINT spine
  {
    OFFSET 0 6.84637 0.3937
    CHANNELS 3 Zrotation Xrotation Yrotation
    JOINT spine1
    {
      OFFSET 0 9.49621 0
      CHANNELS 3 Zrotation Xrotation Yrotation
      JOINT spine2
      {
        OFFSET 0 9.09909 0
        CHANNELS 3 Zrotation Xrotation Yrotation
        JOINT Neck
        {
          OFFSET 0 23.3612 1.11378
          CHANNELS 3 Zrotation Xrotation Yrotation
          JOINT Head
          {
            OFFSET 0 7.05802 0
            CHANNELS 3 Zrotation Xrotation Yrotation
            End Site
            {
              OFFSET 0 17.0844 -5.63419
            }
          }
        }
        JOINT RightShoulder
        {
          OFFSET -3.83136 9.82631 -0.533491
          CHANNELS 3 Zrotation Xrotation Yrotation
          JOINT RightArm
          {
            OFFSET 0 12.8881 0
            CHANNELS 3 Zrotation Xrotation Yrotation
            JOINT RightArmRoll
            {
              OFFSET 0 6.50617 0
              CHANNELS 3 Zrotation Xrotation Yrotation
              JOINT RightForeArm
              {
                OFFSET 0 18.9501 0
                CHANNELS 3 Zrotation Xrotation Yrotation
                JOINT RightForeArmRoll
                {
                  OFFSET 0 7.30093 0
                  CHANNELS 3 Zrotation Xrotation Yrotation
                  JOINT RightHand
                  {
                    OFFSET 0 14.6514 0
                    CHANNELS 3 Zrotation Xrotation Yrotation
                    End Site
                    {
                      OFFSET 0 0 0
                    }
                  }
                }
              }
            }
          }
        }
        JOINT LeftShoulder
        {
          OFFSET 3.83136 9.82631 -0.533491
          CHANNELS 3 Zrotation Xrotation Yrotation
          JOINT LeftArm
          {
            OFFSET 0 12.8881 0
            CHANNELS 3 Zrotation Xrotation Yrotation
            JOINT LeftArmRoll
            {
              OFFSET 0 6.50617 0
              CHANNELS 3 Zrotation Xrotation Yrotation
              JOINT LeftForeArm
              {
                OFFSET 0 18.9501 0
                CHANNELS 3 Zrotation Xrotation Yrotation
                JOINT LeftForeArmRoll
                {
                  OFFSET 0 7.30092 0
                  CHANNELS 3 Zrotation Xrotation Yrotation
                  JOINT LeftHand
                  {
                    OFFSET 0 14.6514 0
                    CHANNELS 3 Zrotation Xrotation Yrotation
                    End Site
                    {
                      OFFSET 0 0 0
                    }
                  }
                }
              }
            }
          }
        }
      }
    }
  }
  JOINT RightUpLeg
  {
    OFFSET -6.06837 -1.11278 -0.933477
    CHANNELS 3 Zrotation Xrotation Yrotation
    JOINT RightUpLegRoll
    {
      OFFSET 0 17.1796 0
      CHANNELS 3 Zrotation Xrotation Yrotation
      JOINT RightLeg
      {
        OFFSET 0 -21.2743 0
        CHANNELS 3 Zrotation Xrotation Yrotation
        JOINT RightLegRoll
        {
          OFFSET 0 21.3439 0
          CHANNELS 3 Zrotation Xrotation Yrotation
          JOINT RightFoot
          {
            OFFSET 0 17.7652 0
            CHANNELS 3 Zrotation Xrotation Yrotation
            JOINT RightToeBase
            {
              OFFSET 0 14.8508 0
              CHANNELS 3 Zrotation Xrotation Yrotation
              End Site
              {
                OFFSET 0.0062947 7.19214 -0.829004
              }
            }
          }
        }
      }
    }
  }
  JOINT LeftUpLeg
  {
    OFFSET 6.06837 -1.11278 -0.933477
    CHANNELS 3 Zrotation Xrotation Yrotation
    JOINT LeftUpLegRoll
    {
      OFFSET 0 17.1797 0
      CHANNELS 3 Zrotation Xrotation Yrotation
      JOINT LeftLeg
      {
        OFFSET 0 21.2742 0
        CHANNELS 3 Zrotation Xrotation Yrotation
        JOINT LeftLegRoll
        {
          OFFSET 0 21.5412 0
          CHANNELS 3 Zrotation Xrotation Yrotation
          JOINT LeftFoot
          {
            OFFSET 0 17.5679 0
            CHANNELS 3 Zrotation Xrotation Yrotation
            JOINT LeftToeBase
            {
              OFFSET 0 14.8508 0
              CHANNELS 3 Zrotation Xrotation Yrotation
              End Site
              {
                OFFSET -0.0282102 7.19213 -0.829005
              }
            }
          }
        }
      }
    }
  }
}
MOTION
Frames: 10
Frame Time: 0.00208333
54.4394 91.597 5.0759 -0.490109 -1.00053 -4.13997 0.284357 -1.77821 -0.061595 0.580935 0.44145 -0.151227 0.582934 2.08647 -0.161618 -6.65928 16.5284 2.31552 3.94003 -3.91729 0.60334 71.6292 5.72293 1.23354 102.413 2.347 18.0559 1.49301e-007 -5.46216e-007 -3.67408e-006 7.99835 13.5425 -2.19569 -6.95607e-006 -8.10334e-006 -3 8.02915 -4.95142 0.697667 -70.5493 0.445724 1.12974 -105.476 4.42 -24.7987 -2.38474e-007 9.29968e-007 -2.19292e-008 -10.1375 8.22806 1.30558 -1.33196e-005 -2.07889e-006 3.00525 -8.02894 -4.95147 -0.697699 175.661 2.87067 1.12243 180 7.01556e-015 178.964 177.735 5.19101 179.959 -2.45963e-006 2.18442e-006 0.0381045 -18.4052 67.6208 19.2209 8.13649 25.2327 -3.48774 -174.639 -0.528417 -0.406098 4.54188e-006 -4.6773e-006 -1.08155 -1.91571 -3.91069 0.0188157 -1.37365e-006 -4.47614e-006 -0.0343963 18.7406 68.0493 -19.5658 -8.13649 25.2327 3.48773 
54.441 91.5993 5.07387 -0.488207 -0.987838 -4.13043 0.283197 -1.78235 -0.0615352 0.577565 0.433506 -0.150957 0.579564 2.07853 -0.161248 -6.60826 16.548 2.30515 3.89741 -3.91743 0.603535 71.6586 5.72159 1.22787 102.365 2.33314 18.09 1.49301e-007 -5.46216e-007 -3.67408e-006 7.9846 13.5443 -2.1947 -6.95607e-006 -8.10334e-006 -3 8.02915 -4.95142 0.697667 -70.5217 0.443424 1.12767 -105.469 4.4107 -24.7775 -2.38474e-007 9.29968e-007 -2.19292e-008 -10.1586 8.25454 1.31087 -1.33196e-005 -2.07889e-006 3.00525 -8.02894 -4.95147 -0.697699 175.661 2.87753 1.12112 180 7.01556e-015 178.964 177.735 5.18379 179.959 -2.45963e-006 2.18442e-006 0.0381045 -18.4072 67.6233 19.223 8.13649 25.2327 -3.48774 -174.641 -0.511274 -0.402427 4.54188e-006 -4.6773e-006 -1.08135 -1.9127 -3.91172 0.0189886 -1.37365e-006 -4.47614e-006 -0.0343963 18.7407 68.0494 -19.5659 -8.13649 25.2327 3.48773 
54.4324 91.5991 5.071 -0.486465 -0.97517 -4.12097 0.282075 -1.78647 -0.0614369 0.574219 0.425593 -0.150605 0.576217 2.07062 -0.160794 -6.55682 16.5686 2.29473 3.85432 -3.91878 0.603731 71.6887 5.7208 1.22232 102.317 2.31871 18.1237 1.49301e-007 -5.46216e-007 -3.67408e-006 7.9713 13.5467 -2.1938 -6.95607e-006 -8.10334e-006 -3 8.02915 -4.95142 0.697667 -70.4948 0.442094 1.12521 -105.462 4.39998 -24.7554 -2.38474e-007 9.29968e-007 -2.19292e-008 -10.181 8.28323 1.31657 -1.33196e-005 -2.07889e-006 3.00525 -8.02894 -4.95147 -0.697699 175.66 2.88428 1.11968 180 7.01556e-015 178.964 177.736 5.17645 179.959 -2.45963e-006 2.18442e-006 0.0381045 -18.4092 67.6258 19.2252 8.13649 25.2327 -3.48774 -174.643 -0.494132 -0.398914 4.54188e-006 -4.6773e-006 -1.08116 -1.90975 -3.9128 0.0191564 -1.37365e-006 -4.47614e-006 -0.0343963 18.7408 68.0495 -19.566 -8.13649 25.2327 3.48773 
54.4325 91.6036 5.06837 -0.484839 -0.962515 -4.11157 0.28098 -1.79059 -0.0613116 0.570889 0.417702 -0.150196 0.572886 2.06273 -0.160281 -6.50509 16.5899 2.28428 3.81091 -3.92098 0.603927 71.7193 5.7204 1.21686 102.268 2.30387 18.1572 1.49301e-007 -5.46216e-007 -3.67408e-006 7.95833 13.5494 -2.19296 -6.95607e-006 -8.10334e-006 -3 8.02915 -4.95142 0.697667 -70.4686 0.441443 1.12249 -105.454 4.38827 -24.7326 -2.38474e-007 9.29968e-007 -2.19292e-008 -10.2045 8.31347 1.32256 -1.33196e-005 -2.07889e-006 3.00525 -8.02894 -4.95147 -0.697699 175.659 2.89095 1.11814 180 7.01556e-015 178.964 177.737 5.169 179.958 -2.45963e-006 2.18442e-006 0.0381045 -18.4113 67.6283 19.2274 8.13649 25.2327 -3.48774 -174.644 -0.476991 -0.39551 4.54188e-006 -4.6773e-006 -1.08097 -1.90685 -3.91393 0.0193206 -1.37365e-006 -4.47614e-006 -0.0343963 18.7408 68.0496 -19.5661 -8.13649 25.2327 3.48773 
54.4256 91.6024 5.06505 -0.483279 -0.949868 -4.10219 0.279899 -1.79471 -0.0611709 0.567569 0.409825 -0.149753 0.569565 2.05485 -0.159735 -6.45318 16.6116 2.27382 3.76732 -3.92367 0.604123 71.7503 5.72022 1.21145 102.22 2.2888 18.1906 1.49301e-007 -5.46216e-007 -3.67408e-006 7.94553 13.5523 -2.19215 -6.95607e-006 -8.10334e-006 -3 8.02915 -4.95142 0.697667 -70.4426 0.44118 1.1196 -105.446 4.376 -24.7094 -2.38474e-007 9.29968e-007 -2.19292e-008 -10.2284 8.34459 1.32872 -1.33196e-005 -2.07889e-006 3.00525 -8.02894 -4.95147 -0.697699 175.659 2.89759 1.11656 180 7.01556e-015 178.964 177.737 5.16153 179.958 -2.45963e-006 2.18442e-006 0.0381045 -18.4133 67.6308 19.2296 8.13649 25.2327 -3.48774 -174.645 -0.45985 -0.39217 4.54188e-006 -4.6773e-006 -1.08079 -1.90397 -3.91507 0.0194827 -1.37365e-006 -4.47614e-006 -0.0343963 18.7409 68.0497 -19.5662 -8.13649 25.2327 3.48773 
54.4253 91.6031 5.06258 -0.481739 -0.937223 -4.09282 0.278823 -1.79882 -0.0610264 0.564252 0.40195 -0.149302 0.566246 2.04698 -0.159181 -6.40122 16.6334 2.26335 3.72367 -3.92648 0.60432 71.7813 5.72009 1.20606 102.171 2.27368 18.2239 1.49301e-007 -5.46216e-007 -3.67408e-006 7.93278 13.5553 -2.19136 -6.95607e-006 -8.10334e-006 -3 8.02915 -4.95142 0.697667 -70.4168 0.441014 1.11669 -105.437 4.36359 -24.6861 -2.38474e-007 9.29968e-007 -2.19292e-008 -10.2525 8.37594 1.33492 -1.33196e-005 -2.07889e-006 3.00525 -8.02894 -4.95147 -0.697699 175.659 2.90421 1.11496 180 7.01556e-015 178.964 177.738 5.15404 179.957 -2.45963e-006 2.18442e-006 0.0381045 -18.4154 67.6334 19.2319 8.13649 25.2327 -3.48774 -174.646 -0.442709 -0.388845 4.54188e-006 -4.6773e-006 -1.0806 -1.90109 -3.91622 0.0196444 -1.37365e-006 -4.47614e-006 -0.0343963 18.741 68.0498 -19.5663 -8.13649 25.2327 3.48773 
54.4331 91.6048 5.06472 -0.480172 -0.924573 -4.08344 0.277739 -1.80294 -0.0608896 0.56093 0.394069 -0.148868 0.562923 2.0391 -0.158643 -6.34933 16.6551 2.25289 3.68012 -3.92904 0.604516 71.8121 5.71986 1.20063 102.122 2.25868 18.2573 1.49301e-007 -5.46216e-007 -3.67408e-006 7.91994 13.5581 -2.19054 -6.95607e-006 -8.10334e-006 -3 8.02915 -4.95142 0.697667 -70.3908 0.440654 1.11384 -105.429 4.35144 -24.663 -2.38474e-007 9.29968e-007 -2.19292e-008 -10.2764 8.40684 1.34104 -1.33196e-005 -2.07889e-006 3.00525 -8.02894 -4.95147 -0.697699 175.658 2.91086 1.11339 180 7.01556e-015 178.964 177.739 5.14656 179.957 -2.45963e-006 2.18442e-006 0.0381045 -18.4174 67.6359 19.2341 8.13649 25.2327 -3.48774 -174.648 -0.425568 -0.385488 4.54188e-006 -4.6773e-006 -1.08042 -1.8982 -3.91737 0.019807 -1.37365e-006 -4.47614e-006 -0.0343963 18.7411 68.0499 -19.5663 -8.13649 25.2327 3.48773 
54.4245 91.6053 5.06019 -0.478531 -0.911913 -4.07402 0.276636 -1.80706 -0.060772 0.557596 0.386172 -0.148475 0.559588 2.0312 -0.158147 -6.29765 16.6762 2.24244 3.6368 -3.931 0.604712 71.8426 5.71934 1.19515 102.074 2.24398 18.2908 1.49301e-007 -5.46216e-007 -3.67408e-006 7.90687 13.5607 -2.18969 -6.95607e-006 -8.10334e-006 -3 8.02915 -4.95142 0.697667 -70.3643 0.439809 1.11119 -105.421 4.34 -24.6404 -2.38474e-007 9.29968e-007 -2.19292e-008 -10.2995 8.43664 1.34695 -1.33196e-005 -2.07889e-006 3.00525 -8.02894 -4.95147 -0.697699 175.658 2.91755 1.11188 180 7.01556e-015 178.964 177.74 5.13914 179.957 -2.45963e-006 2.18442e-006 0.0381045 -18.4195 67.6384 19.2363 8.13649 25.2327 -3.48774 -174.649 -0.408427 -0.382053 4.54188e-006 -4.6773e-006 -1.08023 -1.89528 -3.91848 0.0199723 -1.37365e-006 -4.47614e-006 -0.0343963 18.7412 68.05 -19.5664 -8.13649 25.2327 3.48773 
54.4209 91.6059 5.05442 -0.476767 -0.899238 -4.06454 0.275502 -1.81119 -0.0606853 0.554243 0.37825 -0.148147 0.556235 2.02328 -0.157718 -6.24629 16.6965 2.23202 3.59386 -3.93199 0.604907 71.8725 5.71839 1.18956 102.026 2.22975 18.3247 1.49301e-007 -5.46216e-007 -3.67408e-006 7.89344 13.5629 -2.18876 -6.95607e-006 -8.10334e-006 -3 8.02915 -4.95142 0.697667 -70.3373 0.438188 1.10885 -105.414 4.32967 -24.6185 -2.38474e-007 9.29968e-007 -2.19292e-008 -10.3216 8.46466 1.35254 -1.33196e-005 -2.07889e-006 3.00525 -8.02894 -4.95147 -0.697699 175.657 2.92434 1.11048 180 7.01556e-015 178.964 177.74 5.13185 179.956 -2.45963e-006 2.18442e-006 0.0381045 -18.4215 67.6409 19.2385 8.13649 25.2327 -3.48774 -174.651 -0.391284 -0.378493 4.54188e-006 -4.6773e-006 -1.08004 -1.89232 -3.91955 0.0201416 -1.37365e-006 -4.47614e-006 -0.0343963 18.7413 68.0501 -19.5665 -8.13649 25.2327 3.48773 
54.4221 91.6078 5.05332 -0.474835 -0.886539 -4.05498 0.274327 -1.81533 -0.0606408 0.550864 0.370293 -0.147911 0.552856 2.01532 -0.157381 -6.19538 16.7157 2.22164 3.55142 -3.93164 0.605102 71.9015 5.71682 1.18384 101.978 2.21616 18.3589 1.49301e-007 -5.46216e-007 -3.67408e-006 7.87951 13.5645 -2.18774 -6.95607e-006 -8.10334e-006 -3 8.02915 -4.95142 0.697667 -70.3093 0.4355 1.10694 -105.407 4.32089 -24.5978 -2.38474e-007 9.29968e-007 -2.19292e-008 -10.3422 8.49025 1.35767 -1.33196e-005 -2.07889e-006 3.00525 -8.02894 -4.95147 -0.697699 175.656 2.93123 1.10922 180 7.01556e-015 178.964 177.741 5.12468 179.956 -2.45963e-006 2.18442e-006 0.0381045 -18.4235 67.6433 19.2406 8.13649 25.2327 -3.48774 -174.653 -0.374141 -0.374761 4.54188e-006 -4.6773e-006 -1.07984 -1.88929 -3.92056 0.0203166 -1.37365e-006 -4.47614e-006 -0.0343963 18.7413 68.0502 -19.5666 -8.13649 25.2327 3.48773 
